<svg width="200" height="200" viewBox="0 0 200 200" fill="none" xmlns="http://www.w3.org/2000/svg">
<path d="M48.0451 167.634H152.725C163.244 167.634 171.77 159.107 171.77 148.589V51.042C171.77 40.524 163.244 32 152.725 32H48.0451C37.5241 32 29.0011 40.525 29.0011 51.042V148.589C29.0011 159.107 37.5241 167.634 48.0451 167.634Z" fill="url(#paint0_linear_2864_268)"/>
<path d="M37.4121 64.8579V49.907C37.4121 48.741 38.3951 47.7571 39.5611 47.7571H57.1561C58.3231 47.7571 59.3091 48.741 59.3091 49.907V64.8579C59.3091 66.0259 58.3231 67.011 57.1561 67.011H39.5611C38.3951 67.011 37.4121 66.0269 37.4121 64.8579ZM63.1561 64.8579V49.907C63.1561 48.741 64.1401 47.7571 65.3071 47.7571H161.2C162.366 47.7571 163.35 48.741 163.35 49.907V64.8579C163.35 66.0259 162.366 67.011 161.2 67.011H65.3071C64.1401 67.011 63.1561 66.0269 63.1561 64.8579Z" fill="#1934BF"/>
<path d="M48.045 167.634H152.725C163.244 167.634 171.77 159.107 171.77 148.589V135.423C151.989 131.64 127.24 129.392 100.385 129.392C73.53 129.392 48.781 131.64 29 135.423V148.634C29.024 159.13 37.541 167.634 48.045 167.634Z" fill="url(#paint1_linear_2864_268)"/>
<path d="M53.3251 79.5181L53.4461 79.3091C53.9931 78.3131 55.1591 77.7271 56.0141 77.2801L97.4361 56.218C98.3751 55.725 99.2721 55.3129 100.385 55.3369C101.497 55.3129 102.473 55.784 103.332 56.218L144.72 77.2661C146.163 78.0751 146.891 78.3871 147.421 79.4981C147.809 80.2151 147.926 80.9921 147.822 81.7481L147.797 130.477C148.029 131.565 147.811 132.715 146.985 133.69C146.453 134.393 145.698 134.897 144.846 135.2L103.487 156.21C102.64 156.833 101.569 157.212 100.385 157.183V102.937L53.3251 79.5181Z" fill="#00E6E5"/>
<path d="M53.3251 79.5181L100.386 102.935V157.181C99.2021 157.21 98.1301 156.831 97.2821 156.208L55.9231 135.198C55.0721 134.895 54.3181 134.391 53.7821 133.688C52.9591 132.713 52.7411 131.561 52.9731 130.475L52.9471 81.835C52.8241 81.058 52.9311 80.2571 53.3251 79.5181Z" fill="url(#paint2_linear_2864_268)"/>
<path d="M100.379 102.935V157.181C101.563 157.21 102.633 156.831 103.483 156.208L144.842 135.198C145.692 134.895 146.448 134.391 146.981 133.688C147.807 132.713 148.023 131.561 147.792 130.475L147.817 81.835C147.94 81.057 147.835 80.2561 147.439 79.5171L100.379 102.935Z" fill="url(#paint3_linear_2864_268)"/>
<path d="M111.685 102.189C111.685 111.57 105.729 120.478 105.729 129.699C105.729 133.404 107.02 133.986 110.137 133.986C111.891 133.986 116.66 131.32 116.865 133.438C117.495 139.959 105.672 142.084 101.205 142.084C95.196 142.084 88.105 139.38 88.105 131.367C88.105 121.824 94.297 112.107 94.297 103.378C94.297 100.035 93.508 99.4509 90.129 99.4509C88.014 99.4509 87.317 99.507 84.671 100.554C83.944 100.841 83.367 100.449 83.367 99.668V98.8259C83.344 93.5099 95.723 91.115 99.18 91.115C105.844 91.115 111.685 94.252 111.685 102.189ZM117.877 77.708C117.877 84.062 112.63 87.6301 107.755 87.6301C102.944 87.6301 97.633 84.064 97.633 77.708C97.633 71.757 102.88 67.5349 107.755 67.5349C113.388 67.5349 117.877 72.24 117.877 77.708Z" fill="#3647D3"/>
<defs>
<linearGradient id="paint0_linear_2864_268" x1="26.8141" y1="119.703" x2="173.961" y2="79.9329" gradientUnits="userSpaceOnUse">
<stop stop-color="#00DBDB"/>
<stop offset="0.7216" stop-color="#3647D3"/>
<stop offset="1" stop-color="#3647D3"/>
</linearGradient>
<linearGradient id="paint1_linear_2864_268" x1="27.9557" y1="144.877" x2="172.489" y2="154.657" gradientUnits="userSpaceOnUse">
<stop stop-color="#1B2BBB"/>
<stop offset="1" stop-color="#078DDD"/>
</linearGradient>
<linearGradient id="paint2_linear_2864_268" x1="52.4057" y1="117.821" x2="100.726" y2="118.871" gradientUnits="userSpaceOnUse">
<stop stop-color="#1A7AEF"/>
<stop offset="1" stop-color="#80CECE"/>
</linearGradient>
<linearGradient id="paint3_linear_2864_268" x1="100.042" y1="117.804" x2="148.436" y2="118.904" gradientUnits="userSpaceOnUse">
<stop stop-color="#06A4B2"/>
<stop offset="0.9677" stop-color="#00E5E5"/>
<stop offset="1" stop-color="#80CECE"/>
</linearGradient>
</defs>
</svg>
